#!OML:ASF X:\für Bonn\!DataBase\2005_08_10_Bjorn_Final\c3d\bjorn.ASF
:FULLY-SPECIFIED
:DEGREES
170
root 23.8718 16.628 -0.646501 28.859 -67.966 -343.581
lowerback 62.2265 -2.79176 8.81702
upperback 16.5742 -0.354694 0.521332
thorax -2.46439 -0.37862 -2.99951
lowerneck -0.256062 -1.79024 7.70297
upperneck -14.2098 -2.7782 -3.65431
head -4.36698 -1.70207 -2.28093
rclavicle 1.90833e-014 -8.74653e-015
rhumerus 78.0722 4.71566 -53.7473
rradius 21.3738
rwrist -3.58148
rhand -20.1689 18.0888
rfingers 7.12502
rthumb 6.17678 -11.8012
lclavicle 1.90833e-014 -8.74653e-015
lhumerus 65.697 -4.50179 105.44
lradius 13.3596
lwrist -56.1365
lhand -57.4192 -2.18091
lfingers 7.12502
lthumb -29.6917 25.4618
rfemur -93.403 -17.9207 19.9322
rtibia 71.5924
rfoot -17.0334 9.62934
rtoes -6.3636
lfemur -91.7939 6.42357 -32.3535
ltibia 69.1896
lfoot -13.4006 -8.09332
ltoes -5.62682
171
root 23.8711 16.6096 -0.645638 28.9688 -67.8577 -343.708
lowerback 62.2284 -2.76069 8.7824
upperback 16.572 -0.337511 0.50991
thorax -2.46868 -0.370448 -3.0046
lowerneck -0.311707 -1.76162 7.73934
upperneck -14.1539 -2.74268 -3.67758
head -4.33933 -1.68406 -2.29616
rclavicle 2.8625e-014 4.77083e-015
rhumerus 77.9586 4.88807 -53.6113
rradius 21.5653
rwrist -2.83766
rhand -21.3725 18.8195
rfingers 7.12502
rthumb 5.01464 -11.1012
lclavicle 2.8625e-014 4.77083e-015
lhumerus 65.7077 -4.55784 105.06
lradius 13.376
lwrist -55.6862
lhand -58.0509 -1.63216
lfingers 7.12502
lthumb -30.2944 25.9014
rfemur -93.5019 -17.9608 19.9762
rtibia 71.8255
rfoot -17.1712 9.58331
rtoes -6.56872
lfemur -91.9273 6.41943 -32.3386
ltibia 69.4177
lfoot -13.4614 -8.19895
ltoes -5.47033
172
root 23.8712 16.5917 -0.644177 29.0842 -67.716 -343.822
lowerback 62.1799 -2.75528 8.78283
upperback 16.5876 -0.332114 0.512855
thorax -2.45097 -0.366049 -3.00527
lowerneck -0.38333 -1.74023 7.77352
upperneck -14.0929 -2.72265 -3.72931
head -4.30855 -1.67257 -2.31935
rclavicle -1.59028e-014 5.64548e-014
rhumerus 77.8602 5.04973 -53.3767
rradius 21.7455
rwrist -2.2062
rhand -22.6928 19.582
rfingers 7.12502
rthumb 3.73975 -10.3649
lclavicle -1.59028e-014 5.64548e-014
lhumerus 65.7238 -4.59338 104.764
lradius 13.3762
lwrist -55.3555
lhand -58.6437 -0.989428
lfingers 7.12502
lthumb -30.8597 26.4387
rfemur -93.6324 -18.044 20.0522
rtibia 72.0604
rfoot -17.2986 9.54953
rtoes -6.70416
lfemur -92.0715 6.38124 -32.3297
ltibia 69.6379
lfoot -13.5394 -8.2605
ltoes -5.62617
173
root 23.8707 16.5727 -0.641781 29.1941 -67.6051 -343.935
lowerback 62.128 -2.7528 8.7821
upperback 16.6253 -0.340095 0.477297
thorax -2.4095 -0.362472 -3.04322
lowerneck -0.435177 -1.72266 7.81835
upperneck -14.0987 -2.70435 -3.75356
head -4.30152 -1.66534 -2.3355
rclavicle 4.29375e-014 -2.70347e-014
rhumerus 77.8109 5.18098 -53.4782
rradius 21.8243
rwrist -1.33643
rhand -23.9672 20.3477
rfingers 7.12502
rthumb 2.50908 -9.61726
lclavicle 4.29375e-014 -2.70347e-014
lhumerus 65.7811 -4.65943 104.37
lradius 13.3767
lwrist -54.9447
lhand -59.1413 -0.582157
lfingers 7.12502
lthumb -31.334 26.7551
rfemur -93.7502 -18.1053 20.1079
rtibia 72.2878
rfoot -17.4366 9.54094
rtoes -6.76709
lfemur -92.2144 6.35345 -32.3086
ltibia 69.8637
lfoot -13.5748 -8.35022
ltoes -5.39801
174
root 23.8706 16.5552 -0.639929 29.3019 -67.4772 -344.024
lowerback 62.0458 -2.73125 8.74494
upperback 16.6643 -0.342795 0.495238
thorax -2.36797 -0.364102 -3.00964
lowerneck -0.550529 -1.69763 7.79142
upperneck -14.0295 -2.68438 -3.79427
head -4.25981 -1.65202 -2.34559
rclavicle -1.03368e-013 1.03368e-014
rhumerus 77.7737 5.35476 -53.4212
rradius 21.9664
rwrist -0.604323
rhand -25.2651 21.0872
rfingers 7.12502
rthumb 1.25554 -8.88887
lclavicle -1.03368e-013 1.03368e-014
lhumerus 65.806 -4.6015 104.242
lradius 13.381
lwrist -54.8416
lhand -59.5312 -0.117206
lfingers 7.12502
lthumb -31.7054 27.1474
rfemur -93.8864 -18.1862 20.1794
rtibia 72.5043
rfoot -17.5536 9.51488
rtoes -6.9521
lfemur -92.3682 6.30994 -32.2981
ltibia 70.0753
lfoot -13.6366 -8.44008
ltoes -5.38443
175
root 23.8707 16.5375 -0.638322 29.3836 -67.3876 -344.089
lowerback 61.9577 -2.68351 8.68127
upperback 16.7052 -0.334598 0.50562
thorax -2.32564 -0.361415 -2.97792
lowerneck -0.619999 -1.6828 7.75443
upperneck -13.9792 -2.67224 -3.81298
head -4.2317 -1.6429 -2.34645
rclavicle 3.97569e-014 0
rhumerus 77.7384 5.50743 -53.4096
rradius 22.0457
rwrist 0.206511
rhand -26.5601 21.8535
rfingers 7.12502
rthumb 0.00477338 -8.12628
lclavicle 3.97569e-014 0
lhumerus 65.7877 -4.52542 104.226
lradius 13.4268
lwrist -54.8259
lhand -59.7517 0.0362632
lfingers 7.12502
lthumb -31.9154 27.2591
rfemur -94.0275 -18.2311 20.2051
rtibia 72.7221
rfoot -17.6808 9.47023
rtoes -7.14793
lfemur -92.5194 6.2816 -32.2991
ltibia 70.2851
lfoot -13.6845 -8.51979
ltoes -5.15501
176
root 23.8709 16.5201 -0.636477 29.4474 -67.2889 -344.144
lowerback 61.8977 -2.66553 8.65307
upperback 16.7442 -0.338754 0.493417
thorax -2.28392 -0.359926 -2.98026
lowerneck -0.746131 -1.66627 7.76507
upperneck -13.9233 -2.666 -3.86936
head -4.19386 -1.6383 -2.36708
rclavicle -9.54166e-015 -4.13472e-014
rhumerus 77.7038 5.62855 -53.5354
rradius 22.1181
rwrist 1.08835
rhand -27.7537 22.5456
rfingers 7.12502
rthumb -1.14802 -7.43102
lclavicle -9.54166e-015 -4.13472e-014
lhumerus 65.7717 -4.44996 104.227
lradius 13.4712
lwrist -54.9808
lhand -59.789 0.273959
lfingers 7.12502
lthumb -31.9509 27.4897
rfemur -94.1522 -18.299 20.2495
rtibia 72.9306
rfoot -17.787 9.45085
rtoes -7.24207
lfemur -92.6575 6.24628 -32.2995
ltibia 70.4889
lfoot -13.7393 -8.59507
ltoes -5.07358
